<svg width="50" height="52" viewBox="0 0 50 52" fill="none" xmlns="http://www.w3.org/2000/svg">
<path fill-rule="evenodd" clip-rule="evenodd" d="M47.181 15.625H2.07798C1.53336 15.625 1.02908 15.8438 0.665992 16.2018C0.302908 16.5598 0.0810242 17.0471 0.0810242 17.594V49.3568C0.0810242 49.8938 0.302908 50.3911 0.665992 50.7491C1.02908 51.1071 1.52327 51.3258 2.07798 51.3258H47.181C47.7256 51.3258 48.2299 51.1071 48.5829 50.7491C48.946 50.3911 49.1679 49.9038 49.1679 49.3568V17.594C49.1679 17.057 48.946 16.5598 48.5829 16.2018C48.2198 15.8438 47.7256 15.625 47.181 15.625ZM25.5675 36.2798V46.4829C25.5675 46.99 25.1439 47.4077 24.6295 47.4077C24.1151 47.4077 23.6915 46.99 23.6915 46.4829V36.2798C22.7334 35.9118 22.0577 34.9969 22.0577 33.9229C22.0577 32.5207 23.2074 31.3871 24.6295 31.3871C26.0516 31.3871 27.2013 32.5207 27.2013 33.9229C27.2013 34.9969 26.5256 35.9118 25.5675 36.2798Z" fill="#0B7572"/>
<path fill-rule="evenodd" clip-rule="evenodd" d="M44.6493 19.5431C44.488 14.3322 42.2792 9.62842 38.7896 6.18762C35.1688 2.61753 30.1563 0.399902 24.6293 0.399902C19.1024 0.399902 14.0898 2.60759 10.4691 6.18762C6.97944 9.62842 4.77068 14.3322 4.60931 19.5431H44.6493ZM40.4033 15.9134C39.667 13.2283 38.2248 10.7621 36.1875 8.76325C33.1114 5.73017 28.9863 4.0396 24.6293 4.0396C20.2723 4.0396 16.1473 5.73017 13.0712 8.76325C11.0339 10.772 9.59162 13.2283 8.85537 15.9134H40.4033Z" fill="#0B7572"/>
</svg>
